<?xml version="1.0" standalone="no"?>
<!DOCTYPE svg PUBLIC "-//W3C//DTD SVG 20010904//EN"
 "http://www.w3.org/TR/2001/REC-SVG-20010904/DTD/svg10.dtd">
<svg version="1.0" xmlns="http://www.w3.org/2000/svg"
 width="600.000000pt" height="600.000000pt" 
 viewBox="0 0 600.000000 600.000000"
 preserveAspectRatio="xMidYMid meet">

<g transform="translate(0.000000,600.000000) scale(0.100000,-0.100000)"
fill="rgb(255, 255, 255, 0.7)" stroke="none">
<path d="M2755 5534 c-273 -39 -383 -64 -578 -128 -367 -120 -699 -321 -971
-586 -304 -297 -525 -651 -664 -1067 -88 -265 -116 -447 -116 -768 0 -233 16
-392 49 -511 8 -28 17 -68 21 -89 8 -50 57 -219 78 -268 10 -23 21 -35 28 -31
6 4 8 3 5 -3 -4 -6 -1 -25 7 -43 11 -26 14 -29 20 -15 3 10 9 15 13 11 10 -10
12 -36 3 -36 -5 0 -8 -8 -7 -18 0 -10 6 -19 13 -19 6 0 10 12 9 28 -1 16 0 27
4 26 3 0 16 4 28 11 25 14 36 -1 21 -31 -5 -11 -5 -17 2 -17 5 0 10 -8 10 -19
0 -10 11 -26 25 -35 14 -9 25 -12 25 -7 0 6 -8 15 -18 21 -11 7 -12 10 -2 7 8
-2 20 5 27 17 7 12 12 15 13 9 0 -7 4 -13 10 -13 5 0 8 6 6 13 -1 6 -1 9 1 5
3 -5 9 -8 14 -8 6 0 8 4 4 9 -3 5 -1 12 4 15 5 4 8 -2 7 -11 -2 -9 -8 -19 -14
-21 -7 -2 -9 -8 -6 -14 4 -5 17 0 32 14 24 20 25 20 9 1 -11 -12 -14 -24 -9
-27 6 -3 9 -14 7 -24 -2 -9 -4 -23 -4 -29 -1 -7 -5 -13 -11 -13 -5 0 -9 11 -8
25 1 14 6 25 11 25 4 0 5 5 1 11 -4 8 -9 7 -15 -2 -5 -8 -9 -11 -9 -6 0 4 -11
0 -25 -9 -13 -8 -30 -12 -36 -8 -8 5 -9 3 -4 -5 6 -10 3 -11 -11 -3 -11 5 -26
7 -34 5 -10 -3 -8 1 4 11 17 14 17 16 3 22 -9 3 -13 12 -10 20 4 11 0 12 -18
6 -13 -5 -25 -15 -27 -23 -3 -12 -2 -12 6 0 9 12 13 12 27 -2 15 -15 15 -18 1
-23 -9 -3 -16 -10 -16 -16 0 -5 4 -7 10 -3 5 3 19 -4 31 -16 16 -16 21 -18 16
-6 -3 9 -2 17 3 17 9 0 15 -22 11 -43 -1 -5 3 -6 8 -2 6 3 8 12 5 20 -3 8 4
19 18 26 13 6 26 16 29 22 4 5 9 5 13 -2 4 -6 2 -11 -4 -11 -6 0 -8 -4 -5 -10
3 -6 -1 -7 -9 -4 -9 3 -16 1 -16 -6 0 -6 -5 -8 -12 -4 -7 4 -8 3 -4 -4 4 -6
13 -9 20 -6 8 3 17 0 22 -7 5 -8 3 -10 -6 -4 -9 5 -11 4 -6 -4 6 -8 12 -9 20
-2 13 11 26 5 26 -11 0 -5 -5 -6 -12 -2 -7 4 -8 3 -4 -4 4 -6 2 -20 -3 -30 -7
-14 -6 -19 4 -19 8 0 11 7 7 16 -5 13 -3 14 9 4 12 -10 18 -10 29 0 10 10 12
8 6 -8 -6 -16 -5 -18 5 -8 10 10 10 16 2 24 -13 13 -6 39 9 39 5 0 6 -5 2 -12
-5 -8 -2 -9 10 -5 14 6 17 3 12 -8 -3 -9 -2 -14 3 -10 5 3 12 -1 14 -7 4 -10
6 -10 6 0 1 7 6 10 11 7 6 -4 10 -3 9 2 -3 20 2 34 11 28 6 -3 7 1 3 10 -4 12
-8 13 -13 5 -5 -8 -9 -5 -13 9 -3 14 1 22 14 26 10 4 22 4 27 1 12 -7 26 5 50
47 12 20 16 37 11 37 -6 0 -9 7 -6 15 4 8 1 17 -5 21 -7 4 -8 3 -4 -4 10 -16
-9 -15 -26 0 -7 7 -19 14 -26 15 -21 5 -62 46 -55 56 3 6 1 7 -5 3 -15 -9 -53
69 -39 83 6 6 4 9 -8 7 -27 -4 -59 32 -45 49 9 10 8 13 -4 11 -9 -1 -19 -6
-23 -11 -4 -4 -2 -5 6 0 9 5 12 4 7 -3 -4 -7 -19 -5 -46 7 -51 23 -57 29 -35
37 11 5 21 1 27 -10 5 -9 14 -13 20 -10 7 4 8 2 4 -4 -4 -7 -3 -12 2 -12 6 0
13 8 16 17 4 10 4 14 0 11 -4 -4 -16 -3 -26 3 -14 8 -17 14 -10 21 12 12 43
-4 77 -39 10 -10 21 -17 24 -16 3 1 6 -7 5 -18 0 -12 4 -18 12 -15 19 7 46
-24 41 -46 -5 -17 -3 -17 11 -6 12 10 14 10 8 1 -4 -8 -2 -13 4 -13 7 0 10 -7
6 -15 -3 -8 -2 -15 3 -15 4 0 14 -11 21 -25 7 -13 16 -24 19 -23 3 1 22 -6 41
-15 19 -8 38 -13 42 -11 4 3 31 48 61 102 29 53 64 115 76 137 13 22 37 65 54
95 16 30 31 56 32 58 4 5 145 -86 222 -143 42 -30 100 -62 135 -74 40 -14 87
-41 129 -75 37 -29 96 -67 132 -84 96 -44 123 -65 282 -216 136 -129 151 -140
251 -187 108 -51 123 -60 190 -118 36 -33 40 -50 7 -36 -10 5 -25 7 -33 6 -8
-2 -12 0 -8 5 8 8 -20 33 -37 33 -5 0 -2 -4 8 -10 9 -5 17 -14 17 -19 0 -23
-42 -6 -101 41 -35 28 -77 58 -94 66 -16 8 -68 37 -115 64 -56 32 -122 58
-194 79 -60 16 -111 29 -112 27 -2 -1 36 -22 83 -46 51 -26 111 -68 148 -103
43 -40 92 -72 156 -103 l94 -45 -135 0 c-74 0 -426 0 -782 0 -357 0 -648 -2
-648 -6 0 -11 73 -94 83 -94 27 0 179 -84 223 -123 27 -24 62 -47 78 -51 46
-11 187 -68 336 -136 127 -58 182 -79 166 -62 -4 4 -11 7 -14 8 -15 2 -48 19
-60 31 -7 7 -19 13 -26 13 -7 0 -21 10 -32 22 -13 14 -14 19 -4 14 8 -4 6 0
-4 8 -11 9 -24 16 -29 16 -4 0 -5 4 -2 10 3 5 -15 22 -41 37 -51 30 -222 144
-270 180 l-29 22 848 1 847 0 0 -25 c0 -14 5 -25 11 -25 6 0 8 9 4 20 -4 12
-1 22 7 25 7 3 391 4 853 3 l840 -3 -98 -68 c-154 -108 -230 -146 -317 -162
-8 -1 -14 -8 -13 -13 2 -6 -4 -9 -12 -6 -8 4 -15 1 -15 -6 0 -6 -4 -9 -8 -6
-4 2 -20 -18 -35 -45 -20 -35 -24 -47 -13 -43 9 3 16 2 16 -3 0 -5 -12 -10
-27 -11 -16 -1 -48 -6 -73 -12 -25 -5 -80 -16 -122 -24 -52 -10 -89 -23 -112
-41 -19 -15 -47 -30 -63 -34 -15 -5 -27 -13 -26 -19 1 -5 -5 -16 -15 -24 -15
-12 -16 -11 -4 4 7 9 9 18 5 21 -4 2 -53 1 -109 -3 -79 -7 -120 -16 -195 -45
-116 -45 -113 -45 -234 -47 -74 -1 -93 -4 -73 -10 21 -7 26 -15 24 -38 -2 -29
-16 -55 -16 -31 0 7 -4 10 -9 7 -5 -4 -12 0 -14 6 -3 8 -6 6 -6 -4 -1 -14 -10
-18 -43 -19 -24 0 -70 -3 -103 -5 -33 -2 -96 0 -140 5 -69 7 -73 9 -32 11 26
1 52 4 57 5 6 1 40 3 78 4 117 2 48 19 -87 21 -147 2 -255 17 -137 19 38 0 67
3 65 5 -4 4 -132 14 -279 21 -170 8 -280 38 -368 97 -49 34 -162 62 -175 44
-6 -7 -7 -5 -4 6 6 19 -19 33 -26 15 -2 -7 -8 -8 -13 -4 -5 5 -1 15 10 23 17
12 18 14 3 14 -9 0 -17 -5 -17 -11 0 -15 -40 -1 -70 25 -16 13 -20 15 -11 4 7
-10 10 -18 5 -18 -5 0 2 -9 15 -19 14 -10 30 -18 35 -17 6 2 8 1 3 -1 -4 -3
-4 -10 -1 -15 4 -6 3 -9 -2 -5 -5 3 -30 8 -54 11 -25 4 -73 11 -108 17 -35 6
-65 9 -68 6 -5 -4 37 -31 176 -115 77 -47 114 -64 144 -68 120 -15 239 -34
244 -38 15 -16 -283 -3 -357 16 -24 5 -50 31 -44 42 3 6 2 8 -2 3 -5 -4 -19 0
-32 8 -13 9 -23 13 -23 9 0 -4 -7 0 -16 7 -17 14 -38 20 -66 20 -10 0 -21 5
-24 11 -5 7 -2 8 7 3 11 -7 12 -6 2 7 -7 8 -10 18 -7 21 4 3 -10 16 -30 28
-37 22 -47 33 -21 23 23 -9 18 4 -6 17 -13 7 -19 7 -15 1 3 -6 1 -14 -5 -18
-8 -4 -7 -9 2 -15 10 -6 8 -9 -8 -9 -76 0 38 -86 262 -198 92 -46 120 -55 175
-58 36 -3 103 -14 150 -25 95 -23 300 -38 300 -22 0 6 -19 15 -42 21 -35 9
-18 10 90 6 72 -3 156 -12 185 -20 28 -7 102 -14 162 -15 61 0 133 -4 160 -9
46 -7 42 -8 -45 -11 -52 -1 -248 -1 -435 0 -289 3 -350 6 -410 22 -117 30 -84
13 67 -35 276 -88 490 -121 788 -120 292 0 493 29 760 110 144 44 470 181 470
198 0 6 -100 -20 -190 -49 -77 -25 -173 -43 -361 -69 -101 -14 -130 -22 -271
-75 -32 -11 -90 -26 -130 -31 -76 -11 -404 -11 -448 0 -38 10 109 20 289 20
155 0 157 1 271 40 l115 39 -172 1 c-94 0 -174 4 -177 9 -8 12 96 21 240 21
115 0 131 3 229 35 82 28 136 38 252 50 159 15 214 28 320 76 38 17 106 39
152 49 46 10 88 23 94 29 8 8 7 11 -2 11 -7 0 -9 5 -6 10 5 8 11 7 21 -1 8 -6
14 -8 14 -3 0 5 14 17 30 26 32 18 40 38 14 38 -8 0 -13 4 -9 9 3 5 20 8 38 6
22 -3 27 -2 16 5 -31 18 -71 -1 -67 -32 2 -12 -3 -23 -12 -25 -13 -4 -13 -3 0
6 8 6 10 11 4 11 -6 0 -14 -3 -17 -7 -10 -9 -77 -11 -77 -1 0 4 -5 8 -11 8 -5
0 -7 -5 -3 -11 5 -8 1 -8 -13 0 -11 6 -22 8 -25 6 -2 -2 -21 -5 -41 -7 -21 -1
-46 -10 -57 -20 -11 -10 -23 -18 -27 -18 -5 0 -13 -13 -19 -28 -6 -16 -17 -29
-25 -29 -87 -5 -263 -25 -294 -34 -22 -6 -80 -29 -130 -52 -89 -41 -91 -42
-215 -43 -122 -2 -123 -2 -50 7 108 14 156 28 177 52 18 20 18 20 -5 8 -28
-15 -32 -12 -21 14 4 11 8 14 8 7 1 -9 9 -8 34 4 30 16 31 16 18 0 -8 -9 -11
-19 -7 -23 3 -3 6 -1 6 5 0 7 9 12 19 12 21 0 33 21 25 48 -2 9 1 7 7 -6 8
-15 18 -21 28 -16 33 12 189 63 276 89 134 39 157 50 232 103 37 27 89 61 115
75 26 14 64 37 85 51 51 34 297 115 373 123 l61 6 85 101 85 101 -798 5 -798
5 55 24 c143 61 186 86 230 131 25 26 71 61 101 79 30 17 50 31 46 31 -21 0
-126 -35 -168 -56 -26 -13 -49 -21 -53 -19 -3 3 -4 2 -2 -1 6 -9 -36 -54 -45
-48 -4 2 -11 -1 -15 -7 -5 -8 -2 -10 7 -5 8 4 -3 -8 -24 -27 -20 -19 -65 -49
-100 -68 -54 -29 -74 -34 -155 -39 -87 -5 -124 3 -64 13 130 24 202 42 202 49
0 5 5 6 10 3 6 -3 10 -1 10 5 0 6 6 8 13 4 6 -4 8 -3 4 1 -4 5 3 15 15 22 23
13 23 13 -4 7 -18 -4 -29 -1 -35 10 -8 14 -18 12 -81 -19 -40 -19 -72 -39 -72
-45 0 -6 6 -8 13 -4 7 4 7 2 -2 -7 -10 -11 -15 -11 -18 -1 -6 15 -43 16 -43 1
0 -5 -3 -8 -7 -6 -12 7 -55 -12 -49 -21 3 -5 -36 -9 -86 -11 -50 -1 -96 -4
-102 -8 -7 -4 -8 -3 -1 3 14 14 65 30 170 54 112 26 165 58 162 97 -1 16 -7
26 -12 23 -6 -3 -9 -11 -9 -17 1 -7 -2 -10 -7 -7 -5 3 -9 0 -9 -5 0 -6 -5 -11
-11 -11 -8 0 -7 5 1 15 25 30 3 24 -82 -20 -157 -82 -104 -40 87 69 88 50 110
68 76 61 -19 -3 -36 -10 -116 -45 -32 -15 -39 -17 -56 -19 -5 0 -7 -5 -4 -11
9 -14 -8 -12 -24 2 -8 7 -11 8 -8 2 4 -6 -1 -20 -9 -30 -9 -10 -12 -13 -8 -5
5 10 1 11 -17 6 -35 -10 -120 -55 -136 -71 -29 -28 -60 -27 -105 3 -52 36
-286 135 -299 127 -5 -3 -9 0 -9 5 0 6 -10 11 -22 11 -12 0 -72 23 -133 51
-91 41 -134 68 -231 147 -65 53 -134 112 -154 130 l-35 33 52 -25 c28 -14 72
-44 98 -66 60 -52 97 -70 219 -109 110 -36 138 -49 205 -96 45 -32 131 -79
131 -72 0 2 -27 23 -61 47 -33 23 -58 44 -55 47 3 3 36 -12 73 -32 108 -61
143 -76 161 -73 10 3 -15 21 -63 46 -113 58 -67 52 71 -9 l116 -52 51 21 c83
34 259 93 264 88 2 -2 -26 -21 -64 -41 -37 -21 -81 -46 -98 -56 -16 -11 -58
-33 -93 -50 -52 -26 -69 -30 -100 -23 -78 16 -78 16 -32 -25 25 -22 50 -40 55
-41 6 0 35 20 65 45 30 25 80 57 110 71 30 15 98 55 150 90 89 59 139 79 250
101 41 8 55 11 55 13 0 1 8 3 17 5 9 2 59 32 110 68 51 35 127 83 168 106 41
24 80 47 85 52 15 15 -17 7 -33 -9 -8 -7 -18 -10 -23 -7 -4 3 -19 -1 -31 -9
-31 -20 -81 -29 -71 -13 4 7 0 6 -10 -2 -9 -7 -14 -17 -11 -22 5 -8 -9 -13
-21 -6 -2 1 -12 -8 -20 -20 -16 -23 -42 -33 -29 -11 4 7 3 8 -5 4 -6 -4 -9
-11 -6 -16 9 -15 -94 -82 -153 -100 -90 -27 -112 -31 -112 -20 0 5 6 9 13 7 7
-1 11 6 10 18 -1 11 0 14 3 8 9 -20 21 -16 97 34 40 26 77 48 82 48 6 1 9 6 8
12 -6 29 249 172 283 159 8 -3 14 -1 14 4 0 4 15 12 33 15 73 16 180 66 235
109 59 47 162 93 260 116 28 6 52 16 52 21 0 5 -4 9 -10 9 -5 0 -10 6 -10 13
1 6 9 2 19 -10 20 -23 55 -30 79 -14 11 7 8 21 -17 71 -35 70 -33 74 28 85 38
7 101 41 101 55 0 4 20 30 45 58 51 56 87 73 212 101 49 11 102 24 118 30 l30
11 -23 -18 c-94 -70 -151 -125 -181 -175 -29 -49 -40 -58 -75 -67 -97 -24
-118 -33 -151 -61 -19 -17 -42 -47 -51 -68 -11 -26 -29 -45 -58 -59 -148 -76
-184 -100 -173 -112 9 -10 6 -9 -13 0 -22 12 -23 11 -13 -2 7 -8 10 -18 6 -21
-3 -4 1 -7 11 -7 9 0 21 10 26 23 5 12 9 16 9 10 1 -7 8 -13 17 -13 12 0 15 7
11 27 -4 24 -4 26 8 10 14 -19 46 -22 62 -6 9 9 11 7 9 -7 -2 -11 -10 -18 -20
-16 -14 3 -21 -9 -17 -30 0 -5 -4 -8 -9 -8 -6 0 -10 8 -10 17 0 9 -3 14 -6 10
-3 -3 -3 -15 1 -27 l7 -22 27 26 c15 15 31 23 36 19 4 -5 5 -3 2 3 -4 7 0 15
9 18 8 3 12 10 9 16 -3 5 3 10 13 10 23 0 45 23 34 35 -4 4 0 6 8 3 16 -5 47
22 93 84 18 23 51 47 88 64 50 23 68 39 102 89 49 69 119 114 146 92 10 -8 12
-8 8 -1 -4 7 0 14 8 18 20 7 38 -27 23 -42 -9 -9 -9 -12 0 -12 7 0 12 6 12 13
0 8 4 7 10 -3 6 -10 10 -11 10 -2 0 6 8 12 18 13 16 0 16 1 -1 7 -16 7 -16 9
-2 27 9 11 14 14 10 8 -3 -7 -1 -13 6 -13 8 0 10 -11 6 -34 l-5 -33 35 33 c21
20 32 38 27 45 -4 7 -3 9 3 6 5 -3 44 30 87 73 55 58 96 90 146 115 l70 35 -1
148 c0 81 -4 167 -7 191 l-7 44 -48 -41 c-27 -23 -63 -50 -80 -58 -18 -9 -54
-38 -82 -63 -39 -37 -70 -54 -145 -81 -90 -32 -99 -38 -178 -117 -46 -45 -91
-83 -100 -82 -13 0 -11 3 5 9 12 5 36 28 53 51 16 23 30 38 30 34 0 -4 17 11
38 34 27 31 59 51 122 76 71 29 94 45 140 94 30 33 71 67 90 77 28 13 83 50
148 100 6 4 -20 164 -27 164 -3 0 -12 -9 -18 -19 -7 -11 -43 -41 -80 -68 -37
-26 -98 -78 -134 -115 -37 -38 -73 -68 -81 -68 -9 0 -42 -13 -74 -30 -32 -16
-70 -30 -84 -31 l-25 -1 23 -7 24 -6 -27 -25 c-15 -14 -38 -47 -52 -75 -21
-40 -113 -146 -113 -130 0 3 -10 -5 -22 -17 -15 -15 -23 -18 -26 -9 -2 7 1 18
8 24 10 9 11 9 6 0 -4 -7 -2 -13 3 -13 10 0 15 13 12 32 0 4 8 10 19 13 10 3
22 15 25 26 4 10 10 19 14 19 4 0 22 33 41 74 18 41 37 73 42 70 4 -3 12 6 17
19 15 40 147 116 173 101 7 -4 10 -4 6 1 -4 4 7 16 25 25 17 9 51 42 75 73 27
36 72 75 128 112 l86 57 -7 37 c-13 73 -87 295 -141 419 -194 451 -508 833
-914 1111 -239 164 -558 304 -848 372 -219 51 -308 61 -567 64 -137 2 -263 1
-280 -1z m475 -591 c239 -431 356 -638 720 -1278 267 -470 250 -438 252 -468
1 -16 7 -23 15 -20 8 3 13 -2 13 -13 0 -11 7 -27 14 -37 15 -19 10 -57 -6 -57
-5 0 -7 -8 -4 -18 4 -12 1 -19 -8 -19 -11 0 -13 8 -9 31 3 17 6 35 7 40 0 5
-5 11 -12 13 -9 4 -11 -2 -6 -23 10 -39 -12 -22 -26 21 -6 19 -20 37 -31 40
-11 4 -16 11 -13 17 4 6 10 5 15 -3 5 -8 9 -9 9 -4 0 17 -39 75 -50 75 -6 0
-8 -5 -4 -12 4 -7 3 -8 -4 -4 -6 4 -9 13 -6 20 3 9 -3 17 -15 21 -12 3 -19 11
-16 16 3 5 -1 6 -9 3 -8 -3 -12 -12 -9 -20 3 -8 9 -11 14 -8 5 3 7 -1 4 -8 -3
-7 4 -24 14 -38 17 -21 21 -23 38 -10 17 14 17 14 0 -7 -18 -20 -17 -22 15
-59 18 -22 40 -44 48 -51 16 -12 9 -26 -17 -29 -24 -4 -37 7 -22 17 11 7 11 9
1 9 -7 0 -10 5 -6 12 4 7 3 8 -4 4 -7 -4 -12 -1 -12 6 0 10 -2 10 -9 -1 -7
-10 -13 -11 -30 -2 -23 13 -28 23 -8 20 31 -4 38 1 27 20 -12 24 -54 17 -45
-8 3 -9 -3 -5 -13 8 -11 13 -30 33 -43 43 l-24 20 23 -5 c13 -3 21 -3 18 0 -3
4 -1 12 5 20 9 10 8 13 -5 13 -9 0 -16 5 -16 11 0 5 -4 7 -10 4 -5 -3 -10 -11
-10 -16 0 -6 4 -8 9 -4 5 3 12 2 15 -3 2 -4 -5 -9 -16 -9 -12 -1 -24 -6 -27
-10 -4 -4 -4 -7 -2 -5 10 5 50 -41 44 -51 -3 -6 -1 -7 4 -4 6 4 26 -10 45 -31
21 -23 43 -38 55 -37 12 1 19 -3 17 -10 -6 -16 22 -39 40 -32 8 3 17 3 20 -1
4 -3 13 -7 20 -8 29 -4 56 -16 56 -24 0 -5 -13 -5 -30 0 -16 5 -30 6 -30 3 0
-3 -6 -1 -13 5 -10 8 -13 6 -13 -8 0 -11 2 -17 4 -15 2 2 14 0 27 -5 15 -6 27
-4 35 3 10 9 11 9 5 -2 -5 -9 -4 -12 2 -8 6 4 16 0 24 -9 10 -12 9 -18 -4 -32
-10 -9 -17 -11 -17 -5 0 6 6 13 13 16 19 7 6 14 -36 20 -34 4 -36 3 -25 -11
34 -43 61 -65 159 -126 94 -58 158 -116 130 -116 -5 0 -12 4 -15 9 -3 5 -52
37 -108 72 -78 47 -141 99 -265 218 -90 86 -205 203 -256 260 -59 67 -115 120
-157 147 -93 60 -286 159 -504 259 l-188 86 -157 -72 c-208 -95 -410 -196
-502 -249 -78 -46 -143 -106 -233 -218 -30 -37 -83 -92 -118 -122 -34 -30
-103 -96 -153 -146 -67 -67 -121 -109 -210 -164 -66 -40 -129 -82 -141 -92
-20 -17 -21 -17 -60 23 -46 49 -99 74 -172 84 -28 4 -49 11 -46 16 3 5 -5 9
-17 9 -17 0 -19 3 -10 14 9 11 6 12 -15 8 -18 -3 -25 -1 -20 6 4 6 14 8 23 5
11 -4 14 -3 9 5 -5 8 -2 10 9 6 40 -16 -21 122 -73 167 -21 17 -32 29 -25 25
18 -10 53 16 53 38 0 18 1 18 27 0 39 -25 59 -51 89 -114 33 -70 46 -84 108
-120 30 -17 69 -53 95 -86 37 -48 45 -55 55 -42 6 8 56 43 111 78 113 71 168
118 161 137 -3 7 -2 12 2 10 4 -1 17 8 30 21 12 12 19 22 16 22 -3 0 6 14 20
31 14 17 26 35 26 41 0 6 7 8 15 5 8 -4 16 -3 19 1 3 4 -5 9 -16 9 -22 2 -51
-20 -41 -31 4 -3 1 -6 -5 -6 -7 0 -12 -7 -12 -15 0 -21 -43 -13 -46 8 -2 14 1
15 19 6 18 -9 20 -9 10 1 -9 10 -3 24 28 62 37 47 58 94 23 52 -15 -18 -16
-18 -3 4 8 13 19 24 24 24 15 1 46 58 39 70 -5 7 -2 8 6 3 10 -6 12 -4 7 9 -4
9 -3 15 2 12 5 -3 15 2 22 11 10 12 10 14 2 9 -7 -4 -13 -2 -13 3 0 6 6 11 13
11 7 0 13 8 14 19 1 12 -4 18 -15 16 -28 -3 -52 -17 -46 -26 3 -5 1 -9 -4 -9
-5 0 -17 -18 -27 -40 -26 -57 -48 -81 -65 -70 -8 5 -18 6 -24 3 -17 -11 0 22
172 325 93 163 242 425 330 582 88 157 216 384 284 505 155 274 347 616 378
673 13 23 26 42 29 42 3 -1 107 -183 231 -407z m-873 341 c-9 -9 -28 6 -21 18
4 6 10 6 17 -1 6 -6 8 -13 4 -17z m1862 -220 c-28 -30 -39 -30 -39 -1 0 33 18
49 42 36 19 -10 19 -11 -3 -35z m-209 -33 c0 -5 -39 -48 -86 -97 -100 -104
-99 -92 1 24 67 77 85 93 85 73z m-2586 -289 c56 -54 129 -118 164 -142 46
-33 62 -50 62 -68 0 -29 14 -56 58 -110 19 -23 33 -45 30 -47 -4 -4 -247 254
-348 370 -25 28 -53 60 -64 73 -11 12 -16 22 -11 22 4 0 54 -44 109 -98z
m3246 90 c0 -5 -9 -17 -20 -27 -12 -10 -30 -35 -42 -54 -26 -43 -187 -221
-199 -221 -23 0 -2 29 83 119 50 53 107 117 127 144 33 44 51 58 51 39z
m-3110 -77 c0 -8 -4 -15 -9 -15 -13 0 -22 16 -14 24 11 11 23 6 23 -9z m2482
-12 c-6 -10 -34 -40 -63 -68 -57 -53 -51 -42 20 42 43 51 63 63 43 26z m722
-24 c-3 -5 -10 -7 -15 -3 -5 3 -7 10 -3 15 3 5 10 7 15 3 5 -3 7 -10 3 -15z
m-3374 -265 c0 -10 -89 87 -90 98 0 4 20 -15 45 -41 25 -26 45 -52 45 -57z
m3466 9 c-8 -16 -40 -53 -71 -83 -55 -53 -57 -54 -51 -25 5 18 29 50 64 82 64
59 79 65 58 26z m-3206 -193 c17 -27 38 -54 46 -60 15 -14 19 -50 5 -50 -10 0
-211 221 -211 232 0 4 29 -11 64 -33 44 -27 75 -56 96 -89z m-695 50 c15 -28
14 -30 -3 -30 -23 0 -56 35 -47 49 12 20 34 11 50 -19z m3275 0 c0 -5 -5 -10
-11 -10 -5 0 -7 5 -4 10 3 6 8 10 11 10 2 0 4 -4 4 -10z m-228 -42 c-7 -7 -12
-8 -12 -2 0 6 3 14 7 17 3 4 9 5 12 2 2 -3 -1 -11 -7 -17z m-2114 -46 c33 -43
24 -41 -19 4 -18 20 -28 35 -20 32 8 -2 25 -18 39 -36z m2462 18 c0 -5 -5 -10
-11 -10 -5 0 -7 5 -4 10 3 6 8 10 11 10 2 0 4 -4 4 -10z m369 -17 c-43 -49
-83 -89 -69 -68 18 26 83 95 89 95 2 0 -6 -12 -20 -27z m-764 -22 c-7 -24
-125 -128 -125 -111 0 13 121 142 128 136 2 -3 1 -14 -3 -25z m615 1 c0 -4
-39 -46 -87 -92 -71 -70 -80 -76 -48 -35 72 93 135 153 135 127z m210 -75 c0
-1 -32 -34 -72 -72 l-71 -70 57 67 c51 59 86 90 86 75z m-3710 -232 c0 -8 -4
-15 -10 -15 -5 0 -10 7 -10 15 0 8 5 15 10 15 6 0 10 -7 10 -15z m-30 -150
c33 -41 60 -79 60 -85 0 -16 -82 47 -100 78 -21 35 -42 94 -30 87 5 -3 36 -39
70 -80z m4267 -91 c-48 -46 -93 -84 -100 -84 -7 0 30 41 81 91 51 50 96 88
100 84 4 -4 -33 -45 -81 -91z m-2149 -44 c75 -39 151 -81 167 -95 27 -22 20
-21 -72 14 -56 21 -104 37 -106 35 -2 -2 -36 3 -77 12 -73 15 -73 15 -184 -17
-60 -17 -119 -33 -131 -35 -11 -2 -45 -13 -75 -23 l-55 -20 30 25 c17 14 50
37 74 51 60 36 252 122 274 123 9 0 79 -32 155 -70z m-2598 20 c0 -5 -2 -10
-4 -10 -3 0 -8 5 -11 10 -3 6 -1 10 4 10 6 0 11 -4 11 -10z m212 -56 c28 -17
52 -40 57 -55 5 -15 25 -45 45 -67 51 -56 44 -61 -16 -10 -100 85 -190 177
-183 188 5 8 14 6 29 -8 11 -10 42 -32 68 -48z m623 -121 c38 -22 57 -42 79
-83 l29 -54 -61 47 c-59 46 -203 196 -211 220 -2 7 23 -14 55 -45 33 -31 82
-69 109 -85z m-45 121 c0 -8 -4 -12 -10 -9 -5 3 -10 10 -10 16 0 5 5 9 10 9 6
0 10 -7 10 -16z m1730 -19 c150 -36 267 -94 427 -213 66 -50 165 -133 220
-186 90 -86 126 -115 108 -87 -3 5 0 13 6 17 7 4 9 3 5 -4 -3 -6 -2 -13 4 -17
6 -4 8 -10 5 -15 -6 -10 44 -52 55 -45 4 3 14 -3 21 -13 13 -16 13 -16 -6 -2
-19 14 -19 14 -6 -3 8 -10 20 -16 27 -13 7 2 20 -4 30 -15 13 -15 19 -16 26
-7 4 8 8 8 8 2 0 -23 -14 -23 -39 -2 l-26 23 24 -28 c14 -15 29 -26 35 -25 18
4 54 -25 49 -38 -3 -8 4 -11 21 -10 14 2 24 -2 23 -8 -1 -6 6 -10 16 -10 9 1
17 -2 17 -7 0 -13 -18 -11 -48 7 -25 15 -26 15 -7 0 11 -9 29 -24 40 -34 11
-9 23 -16 27 -14 5 1 7 -1 7 -6 -4 -21 3 -24 16 -6 14 18 14 18 9 -2 -3 -12 0
-25 7 -29 8 -6 10 -4 4 5 -5 8 -4 11 3 6 6 -4 8 -14 5 -23 -5 -12 -2 -15 10
-10 11 4 17 1 17 -8 0 -8 7 -15 15 -15 8 0 15 -5 15 -11 0 -5 4 -7 10 -4 6 4
7 -1 3 -12 -6 -15 -4 -16 8 -6 11 9 18 8 31 -1 10 -7 16 -15 13 -18 -3 -2 7
-16 22 -30 53 -49 128 -131 107 -117 -12 8 -90 73 -174 144 -334 284 -440 370
-568 456 -127 85 -303 179 -336 179 -8 0 -19 6 -23 13 -4 6 -21 13 -38 13 -16
1 -73 10 -125 19 -103 19 -323 16 -409 -5 -24 -6 -46 -9 -48 -6 -7 6 80 24
185 38 98 13 219 4 329 -25 70 -19 76 -9 11 19 -62 26 -190 54 -248 54 -96 0
-250 -45 -307 -90 -14 -11 -33 -20 -42 -20 -21 0 -158 -66 -250 -119 -137 -81
-336 -233 -578 -444 -63 -55 -107 -86 -114 -81 -7 4 -9 3 -6 -3 4 -6 -19 -33
-51 -60 -82 -71 -93 -75 -44 -15 24 29 49 49 54 45 6 -3 8 -1 5 4 -4 6 4 19
18 29 13 10 22 21 19 26 -5 7 3 10 22 7 4 0 10 5 15 13 5 7 16 13 26 13 14 0
18 8 17 36 -1 31 2 36 18 31 19 -5 51 15 44 27 -3 4 -1 13 5 21 6 11 9 12 9 2
0 -7 5 -10 12 -6 7 4 8 3 4 -5 -4 -6 -13 -8 -19 -5 -7 4 -9 4 -5 -1 4 -4 3
-14 -3 -22 -21 -25 0 -13 38 22 21 19 38 40 38 47 0 7 6 13 13 13 7 0 16 6 21
13 5 8 12 14 17 15 5 1 8 6 6 10 -1 5 1 6 6 3 5 -3 20 6 32 19 22 23 20 30 -5
25 -5 -1 -6 2 -2 7 5 4 18 9 30 9 48 3 48 3 38 23 -6 10 -8 21 -4 24 3 4 0 14
-8 24 -8 10 -9 14 -2 10 7 -5 19 2 29 18 9 13 20 22 25 19 5 -3 9 0 9 6 0 7 7
9 16 6 8 -3 12 -2 9 4 -3 6 2 13 12 17 10 4 23 14 30 22 7 9 13 13 13 9 0 -5
9 0 19 10 11 9 27 23 36 31 39 31 -2 21 -88 -23 -50 -26 -81 -38 -67 -26 77
65 347 233 363 226 7 -2 4 -5 -6 -5 -13 -1 -16 -7 -13 -26 3 -13 0 -28 -6 -31
-6 -4 -8 -3 -5 2 3 6 2 16 -2 23 -5 7 -8 -1 -9 -21 l-1 -33 22 25 c12 14 25
25 28 25 4 0 42 25 85 56 83 59 212 116 336 149 90 23 97 23 178 5z m-2440
-95 c0 -5 -4 -10 -10 -10 -5 0 -10 5 -10 10 0 6 5 10 10 10 6 0 10 -4 10 -10z
m2862 -61 c2 -5 10 -11 18 -13 45 -7 333 -189 375 -236 17 -19 11 -17 -31 8
-59 37 -154 81 -185 87 -29 6 -61 27 -141 94 -36 31 -64 59 -62 63 7 11 22 10
26 -3z m-982 -13 c0 -3 -4 -8 -10 -11 -5 -3 -10 -1 -10 4 0 6 5 11 10 11 6 0
10 -2 10 -4z m-1886 -131 c21 -25 34 -45 30 -45 -11 0 -84 72 -84 82 0 19 20
5 54 -37z m1283 -7 c-3 -8 -6 -5 -6 6 -1 11 2 17 5 13 3 -3 4 -12 1 -19z
m-496 -9 c13 -9 34 -19 45 -23 31 -10 57 -35 89 -86 15 -25 41 -60 58 -77 45
-47 29 -49 -25 -2 -38 32 -125 80 -166 91 -34 9 -97 38 -99 45 -4 11 58 10 78
-2 12 -8 12 -6 0 8 -7 9 -17 15 -21 12 -4 -3 -21 2 -36 11 l-29 16 38 -5 c34
-5 36 -4 27 13 -12 22 5 22 41 -1z m3117 -16 c-6 -7 -20 -10 -33 -7 -13 3 -26
1 -29 -5 -4 -6 -2 -11 5 -11 7 0 22 -8 33 -17 20 -17 20 -17 6 1 -13 17 -13
19 0 14 8 -3 21 2 28 11 12 14 13 14 8 -2 -4 -12 -2 -17 6 -14 7 2 12 11 10
20 -4 22 13 29 28 12 11 -13 10 -14 -6 -9 -10 4 -16 4 -12 -1 11 -11 -11 -47
-24 -39 -7 4 -8 3 -4 -4 4 -7 0 -12 -11 -13 -11 0 -13 -3 -5 -6 6 -2 10 -9 7
-14 -4 -5 1 -6 9 -3 9 3 14 10 11 14 -3 4 5 10 16 13 12 3 19 10 16 14 -3 5 7
8 24 7 16 -1 32 2 35 7 3 5 10 9 15 9 14 0 5 -25 -9 -26 -7 -1 -16 -2 -22 -3
-5 0 -34 -23 -63 -49 -43 -39 -63 -50 -100 -55 -26 -4 -65 -16 -87 -27 -22
-11 -40 -19 -40 -17 0 10 102 186 113 195 14 11 44 19 69 18 13 0 14 -3 6 -13z
m136 -5 c-3 -5 -10 -6 -15 -2 -6 3 -20 -2 -31 -13 -21 -18 -21 -18 -7 4 8 14
22 22 35 21 13 -1 20 -6 18 -10z m-2833 -23 c7 -5 3 -14 -10 -26 -12 -11 -21
-26 -21 -34 0 -8 -5 -17 -10 -20 -15 -9 -51 5 -44 17 4 7 9 6 14 -2 4 -7 13
-9 20 -5 10 6 9 11 -5 22 -15 10 -15 13 -4 13 8 0 24 7 35 15 10 8 15 15 9 14
-25 -3 -46 2 -40 10 6 10 37 7 56 -4z m2246 -77 c-3 -8 -6 -5 -6 6 -1 11 2 17
5 13 3 -3 4 -12 1 -19z m-3050 -9 c2 -16 -1 -19 -9 -11 -5 5 -7 15 -4 21 10
15 12 14 13 -10z m66 6 c20 1 27 -4 27 -18 0 -16 -5 -18 -27 -12 -27 6 -27 6
-8 -10 19 -14 18 -15 -9 -3 -15 7 -23 14 -17 16 8 3 6 11 -6 25 -11 14 -12 18
-3 11 8 -5 27 -10 43 -9z m-314 -137 c6 -18 6 -28 0 -28 -12 0 -139 128 -139
141 0 19 129 -86 139 -113z m1013 115 c-6 -2 -10 -8 -8 -12 3 -4 -6 -7 -20 -7
-13 0 -24 1 -24 3 0 5 43 22 55 22 6 -1 4 -3 -3 -6z m1272 -32 c41 -42 42 -99
1 -142 -70 -73 -185 -27 -185 74 0 31 7 46 35 74 32 32 40 35 77 30 28 -4 51
-15 72 -36z m-1319 -19 c-3 -3 -11 0 -18 7 -9 10 -8 11 6 5 10 -3 15 -9 12
-12z m2141 -8 c2 -12 -1 -13 -12 -3 -7 6 -11 16 -8 21 7 11 17 3 20 -18z m389
16 c3 -5 -1 -10 -9 -10 -9 0 -16 -4 -16 -10 0 -5 7 -7 16 -3 9 3 23 -3 35 -16
11 -11 15 -21 9 -21 -6 0 -9 -4 -5 -9 8 -14 -12 -23 -35 -16 -11 4 -17 12 -13
20 3 8 9 12 14 9 5 -3 7 -9 5 -13 -3 -4 1 -8 8 -8 8 0 11 8 8 19 -3 12 -14 18
-32 18 -20 0 -27 5 -26 18 2 27 29 42 41 22z m-2215 -10 c0 -5 -4 -10 -9 -10
-6 0 -13 5 -16 10 -3 6 1 10 9 10 9 0 16 -4 16 -10z m2134 -5 c-4 -8 -10 -12
-15 -9 -11 6 -2 24 11 24 5 0 7 -7 4 -15z m-2396 -17 c6 -1 12 -4 12 -7 0 -10
-20 -37 -20 -27 0 5 -6 3 -14 -3 -11 -9 -18 -8 -31 6 -12 11 -14 18 -6 21 6 2
9 8 6 12 -3 5 5 7 17 4 13 -3 29 -6 36 -6z m-87 -13 c11 6 11 5 2 -5 -12 -14
-33 -6 -33 13 0 8 3 7 9 -2 5 -8 14 -10 22 -6z m906 -23 c1 -10 -5 -19 -12
-19 -10 0 -11 5 -4 19 5 10 11 18 12 18 2 0 3 -8 4 -18z m68 -24 c-2 -18 -7
-58 -10 -89 -13 -103 41 -227 127 -289 168 -122 405 -48 479 149 16 44 20 73
17 133 l-3 77 22 -15 c13 -8 23 -11 23 -7 0 4 6 -1 13 -12 10 -13 16 -15 21
-6 4 6 12 9 17 6 5 -3 6 1 3 10 -4 10 -2 15 7 13 18 -4 26 -38 28 -108 1 -102
-40 -216 -101 -279 -17 -17 -26 -31 -21 -31 16 0 69 63 98 115 37 67 55 136
55 216 0 41 5 72 15 85 14 18 14 18 8 -3 -3 -14 -1 -23 6 -23 7 0 11 -8 10
-17 -1 -10 1 -30 5 -45 12 -41 -12 -166 -44 -236 -109 -233 -417 -344 -674
-243 -163 65 -250 154 -300 308 -26 78 -23 240 4 267 16 16 18 6 21 -74 2 -89
20 -154 61 -232 29 -55 111 -157 88 -111 -5 12 -14 24 -19 28 -19 11 -73 117
-87 168 -15 56 -17 138 -6 202 6 33 11 39 32 39 14 0 32 -4 39 -9 10 -5 12 -4
7 3 -4 7 -5 12 -2 12 2 0 12 3 22 7 11 4 15 3 10 -5 -3 -6 -2 -13 3 -16 5 -3
12 5 15 19 9 36 16 31 11 -7z m-970 -14 l5 -29 -14 25 c-8 14 -12 28 -9 33 7
12 13 3 18 -29z m1834 -130 c1 -130 -33 -227 -117 -332 -19 -24 -31 -46 -28
-49 14 -15 69 40 139 137 10 15 7 4 -7 -25 -31 -64 -69 -102 -178 -175 -185
-124 -358 -156 -544 -99 -150 45 -327 169 -375 261 -29 56 -23 68 10 17 34
-52 108 -126 117 -116 4 4 -10 27 -30 52 -21 25 -53 79 -72 121 -29 62 -36 92
-41 162 -3 52 -1 110 7 145 16 78 23 67 11 -18 -19 -133 11 -264 87 -380 91
-138 186 -205 339 -239 90 -20 134 -20 229 -1 138 29 228 83 308 185 115 147
155 309 121 499 -3 14 2 8 9 -14 8 -22 15 -81 15 -131z m-1794 138 c-3 -3 -11
0 -18 7 -9 10 -8 11 6 5 10 -3 15 -9 12 -12z m-1164 -1 c7 11 9 11 9 -1 0 -36
84 -85 169 -100 36 -6 82 -20 103 -31 20 -10 76 -28 123 -39 121 -28 176 -59
225 -125 43 -58 73 -78 132 -89 l38 -7 -21 -40 c-11 -22 -28 -54 -39 -71 l-18
-30 -17 33 c-29 57 -56 78 -128 101 -48 16 -75 31 -88 49 -10 15 -40 39 -67
55 -26 15 -70 48 -98 74 -49 46 -122 90 -174 104 -64 18 -159 62 -169 79 -11
17 -11 17 14 1 14 -9 25 -12 25 -6 0 6 -9 16 -20 22 -11 6 -20 16 -19 23 0 8
2 7 6 -2 5 -11 7 -11 14 0z m2769 -18 c0 -8 5 -11 10 -8 6 3 10 2 10 -4 0 -17
-18 -21 -24 -5 -3 8 -10 13 -15 10 -5 -3 -15 2 -22 11 -10 12 -10 14 -1 9 6
-4 12 -3 12 3 0 6 7 8 15 5 8 -4 15 -13 15 -21z m-1431 -10 c-6 -7 -17 -13
-23 -12 -7 0 -6 2 2 6 6 2 10 8 8 12 -3 4 1 8 9 8 11 0 12 -4 4 -14z m2382 3
c-6 -8 -21 -16 -32 -19 -24 -6 -19 1 13 19 31 16 32 16 19 0z m-2611 -10 c0
-2 -7 -7 -16 -10 -8 -3 -12 -2 -9 4 6 10 25 14 25 6z m2895 -26 c-10 -11 -22
-17 -27 -14 -5 4 1 12 14 19 32 18 34 18 13 -5z m-3586 -44 c19 -20 32 -36 27
-36 -11 0 -96 73 -96 82 0 14 33 -8 69 -46z m3538 39 c0 -8 -4 -12 -9 -9 -5 3
-6 10 -3 15 9 13 12 11 12 -6z m-2676 -18 c-10 -9 -11 -8 -5 6 3 10 9 15 12
12 3 -3 0 -11 -7 -18z m2659 -7 c0 -5 -8 -10 -17 -10 -15 0 -16 2 -3 10 19 12
20 12 20 0z m-370 -31 c0 -4 -9 -7 -19 -6 -11 0 -18 4 -16 7 6 9 35 8 35 -1z
m27 -31 c-3 -8 -6 -5 -6 6 -1 11 2 17 5 13 3 -3 4 -12 1 -19z m557 -7 c-5 -4
-36 -18 -68 -31 -33 -13 -79 -39 -103 -57 -48 -37 -58 -40 -66 -19 -16 40 86
104 182 115 59 7 70 6 55 -8z m66 15 c0 -2 -7 -7 -16 -10 -8 -3 -12 -2 -9 4 6
10 25 14 25 6z m-4191 -123 c61 -64 111 -121 111 -127 0 -12 -216 200 -231
227 -24 43 17 9 120 -100z m81 39 c44 -25 70 -48 82 -71 10 -19 42 -60 73 -91
70 -71 72 -89 2 -23 -29 28 -70 61 -92 75 -22 14 -64 50 -92 81 -77 81 -72 87
27 29z m1580 28 c0 -5 -5 -10 -11 -10 -5 0 -7 5 -4 10 3 6 8 10 11 10 2 0 4
-4 4 -10z m1631 -13 c-10 -9 -11 -8 -5 6 3 10 9 15 12 12 3 -3 0 -11 -7 -18z
m-116 -74 c-31 -106 -110 -240 -181 -304 -30 -27 -154 -102 -154 -93 0 3 12
16 28 30 l27 25 -37 -23 c-21 -13 -36 -27 -35 -33 4 -11 -3 -15 -81 -57 -60
-32 -62 -33 -62 -13 0 8 -3 15 -6 15 -3 0 -12 -7 -20 -15 -14 -13 -13 -15 3
-15 14 0 15 -2 4 -9 -9 -6 -21 -5 -33 2 -16 10 -21 9 -29 -5 -6 -10 -19 -18
-30 -18 -11 0 -17 5 -14 10 3 6 1 10 -4 10 -6 0 -11 -7 -11 -17 0 -9 -2 -14
-6 -11 -3 3 -22 2 -42 -3 -64 -16 -231 -10 -327 10 -106 22 -142 37 -210 85
-27 20 -93 65 -145 100 -97 66 -124 90 -155 139 -25 39 -15 34 41 -21 68 -66
96 -85 52 -35 -47 54 -81 115 -60 112 19 -3 23 2 12 16 -16 19 -60 187 -48
183 5 -2 25 -50 43 -107 20 -61 49 -127 71 -158 85 -123 217 -211 417 -278
130 -44 202 -52 282 -32 72 18 253 92 320 131 63 37 174 151 204 209 26 51 37
60 28 25 -4 -12 -2 -27 3 -33 10 -11 -6 -33 -83 -114 -23 -24 -33 -39 -21 -33
11 6 49 41 85 79 67 71 120 162 160 273 28 76 38 56 14 -27z m-170 -12 c-9
-28 -21 -54 -27 -58 -8 -4 -9 0 -4 13 7 17 21 56 32 93 3 8 7 11 10 8 3 -3 -2
-28 -11 -56z m1615 35 c0 -2 -6 -9 -13 -15 -10 -8 -14 -7 -14 4 0 8 6 15 14
15 7 0 13 -2 13 -4z m-87 -26 c3 -11 3 -20 1 -20 -2 0 -8 9 -14 20 -6 11 -7
20 -2 20 6 0 12 -9 15 -20z m-3011 -72 c32 -34 55 -64 53 -67 -6 -6 -102 87
-116 112 -19 34 7 16 63 -45z m228 27 c0 -5 -5 -3 -10 5 -5 8 -10 20 -10 25 0
6 5 3 10 -5 5 -8 10 -19 10 -25z m1501 8 c-13 -24 -91 -99 -91 -88 0 8 90 105
97 105 2 0 -1 -8 -6 -17z m-220 -60 c-12 -20 -14 -14 -5 12 4 9 9 14 11 11 3
-2 0 -13 -6 -23z m-2106 -33 c3 -6 -1 -7 -9 -4 -18 7 -21 14 -7 14 6 0 13 -4
16 -10z m-42 -17 c-5 -12 -3 -14 8 -8 12 8 12 6 0 -8 -17 -22 -19 -21 -16 6 3
25 3 27 10 27 2 0 1 -7 -2 -17z m674 -51 l28 -37 -43 33 c-23 19 -47 43 -53
54 -10 19 -10 19 15 3 13 -9 37 -33 53 -53z m2390 53 c0 -8 -4 -12 -9 -9 -5 3
-6 10 -3 15 9 13 12 11 12 -6z m-3090 -33 c0 -10 -19 -31 -41 -46 -38 -26 -39
-27 -21 -5 21 26 59 67 62 68 1 1 1 -7 0 -17z m3143 -37 c13 -14 21 -25 18
-25 -2 0 -15 11 -28 25 -13 14 -21 25 -18 25 2 0 15 -11 28 -25z m-2658 -12
c-6 -3 -10 -9 -7 -14 4 -5 -2 -6 -11 -2 -15 6 -15 7 -1 18 9 7 15 14 13 17 -1
3 2 1 8 -4 8 -8 7 -12 -2 -15z m1529 -27 c-30 -30 -67 -60 -82 -67 -16 -6 -27
-15 -24 -19 2 -4 -27 -21 -67 -39 -74 -33 -93 -37 -83 -21 4 6 10 8 15 5 4 -3
10 -1 12 4 1 4 28 21 58 36 63 31 166 102 194 134 11 11 22 21 25 21 3 0 -19
-25 -48 -54z m-1477 -2 c3 -9 1 -12 -4 -9 -6 4 -14 -4 -18 -16 -7 -19 -10 -20
-15 -6 -4 10 -2 17 3 17 6 0 10 8 10 18 0 14 -2 15 -10 2 -5 -8 -10 -10 -10
-4 0 27 34 25 44 -2z m1978 -1 c-5 -10 -7 -24 -4 -32 3 -9 -1 -11 -17 -6 -12
3 -21 2 -21 -3 0 -6 5 -12 12 -14 7 -3 -10 -15 -38 -28 -27 -13 -58 -30 -68
-39 -16 -13 -15 -10 3 14 13 17 28 30 34 30 6 0 17 11 24 25 7 14 13 21 13 16
0 -5 7 -3 15 4 8 7 12 16 9 21 -3 5 1 6 9 3 8 -3 17 2 20 10 4 9 9 16 12 16 3
0 2 -8 -3 -17z m19 -26 c-10 -9 -11 -8 -5 6 3 10 9 15 12 12 3 -3 0 -11 -7
-18z m268 -10 c-30 -18 -72 -44 -94 -58 -51 -33 -85 -51 -85 -46 0 6 129 91
175 116 62 33 65 25 4 -12z m-3729 8 c-7 -9 -15 -13 -19 -10 -3 3 1 10 9 15
21 14 24 12 10 -5z m575 5 c3 -6 -1 -7 -9 -4 -18 7 -21 14 -7 14 6 0 13 -4 16
-10z m909 -3 c-2 -7 6 -17 18 -23 13 -6 17 -9 11 -7 -7 1 -13 -2 -13 -7 0 -16
-20 -12 -26 5 -6 15 1 45 10 45 3 0 3 -6 0 -13z m-1314 -28 c0 -5 -4 -9 -8 -9
-5 0 -9 7 -9 15 0 8 4 12 9 9 4 -3 8 -9 8 -15z m-115 -9 c-3 -5 -13 -6 -21 -3
-12 4 -13 8 -3 14 15 9 32 2 24 -11z m48 0 c-5 -18 -33 -30 -33 -14 0 5 29 32
37 34 0 0 -1 -9 -4 -20z m35 13 c-1 -5 2 -20 6 -35 8 -28 29 -37 41 -18 3 6 0
10 -7 10 -10 0 -10 2 1 9 22 14 41 1 41 -28 0 -14 -4 -21 -8 -15 -4 7 -15 8
-27 3 -12 -4 -14 -8 -5 -8 10 -1 11 -4 3 -12 -7 -7 -19 -1 -42 21 -34 35 -39
45 -16 36 12 -4 13 -2 6 13 -6 10 -7 21 -4 25 8 8 13 8 11 -1z m1003 -28 c14
9 81 -30 115 -67 16 -18 57 -66 89 -107 l58 -74 -63 34 c-34 18 -74 48 -89 67
-14 19 -38 46 -53 60 -23 21 -26 28 -15 41 10 14 10 14 -3 4 -9 -6 -20 -9 -25
-5 -12 9 -35 49 -34 59 0 5 3 2 6 -5 2 -6 9 -10 14 -7z m387 -7 c-2 -7 2 -13
7 -12 6 1 18 -7 28 -17 9 -11 14 -19 10 -19 -4 0 1 -6 11 -13 18 -13 18 -14 1
-14 -10 0 -20 9 -23 19 -2 10 -9 18 -16 18 -14 0 -37 35 -29 44 10 9 13 7 11
-6z m-403 -18 c3 -6 -1 -7 -9 -4 -18 7 -21 14 -7 14 6 0 13 -4 16 -10z m1036
-24 c41 -19 91 -37 112 -41 20 -4 37 -11 37 -15 0 -17 -151 34 -205 70 -43 28
-28 25 56 -14z m-529 15 c8 11 9 10 4 -3 -3 -10 -1 -20 4 -23 6 -4 10 -12 9
-18 0 -8 -3 -7 -6 2 -5 11 -7 11 -15 0 -8 -11 -8 -10 -4 4 3 11 0 20 -9 23 -8
4 -12 11 -8 17 5 8 8 7 11 -2 4 -11 6 -11 14 0z m2358 5 c0 -3 -4 -8 -10 -11
-5 -3 -10 -1 -10 4 0 6 5 11 10 11 6 0 10 -2 10 -4z m-2227 -94 c31 -23 58
-42 61 -42 3 0 33 -17 68 -37 35 -21 101 -52 148 -70 102 -39 77 -42 -57 -8
-88 23 -261 96 -273 116 -3 4 -18 12 -33 18 -19 8 -25 15 -20 27 4 11 3 15 -5
10 -6 -3 -13 -2 -17 4 -6 10 3 13 37 13 10 0 15 4 12 8 -3 5 -9 7 -14 4 -9 -6
-20 31 -12 40 4 4 16 -4 27 -17 12 -14 46 -43 78 -66z m1507 63 c-7 -8 -17
-15 -23 -15 -6 0 -2 7 9 15 25 19 30 19 14 0z m-600 -15 c0 -5 -5 -10 -11 -10
-5 0 -7 5 -4 10 3 6 8 10 11 10 2 0 4 -4 4 -10z m-303 -36 c-3 -3 -12 -4 -19
-1 -8 3 -5 6 6 6 11 1 17 -2 13 -5z m808 -30 c-26 -11 -27 -19 -2 -15 12 2 8
-5 -15 -25 -12 -10 -18 -14 -15 -8 4 7 1 14 -6 17 -9 3 -13 -3 -13 -17 1 -16
-12 -27 -54 -48 -30 -15 -59 -28 -63 -28 -5 0 19 24 53 53 34 28 65 50 68 49
3 -2 9 3 14 12 5 9 16 16 23 16 8 0 15 5 15 11 0 5 5 7 12 3 8 -5 2 -12 -17
-20z m-2655 -49 c24 -25 39 -45 33 -45 -18 0 -110 89 -93 90 9 0 36 -20 60
-45z m2430 -15 c-6 -11 -14 -20 -19 -20 -4 0 -14 -11 -21 -25 -7 -13 -16 -24
-19 -23 -19 2 -31 -3 -27 -11 3 -5 0 -13 -7 -18 -14 -11 -89 -34 -94 -29 -2 2
16 15 40 29 24 14 49 33 56 41 7 9 18 13 24 9 5 -3 7 -2 4 4 -8 12 31 46 44
38 5 -4 9 -3 8 2 -3 15 1 23 11 23 7 0 7 -6 0 -20z m-254 -15 c-50 -24 -192
-50 -236 -43 -27 4 110 41 210 57 79 12 80 12 26 -14z m-2609 -50 c0 -8 -4
-12 -9 -9 -5 3 -6 10 -3 15 9 13 12 11 12 -6z m27 -1 c3 -8 2 -12 -4 -9 -6 3
-10 10 -10 16 0 14 7 11 14 -7z m1594 -23 c41 -28 223 -128 255 -140 30 -12
36 -22 10 -17 -10 2 -38 7 -63 11 -64 10 -129 48 -191 111 -55 55 -59 68 -11
35z m-1493 -70 c-15 -14 -31 -6 -31 15 0 22 1 22 18 7 10 -9 16 -19 13 -22z
m126 -14 c-10 -9 -11 -8 -5 6 3 10 9 15 12 12 3 -3 0 -11 -7 -18z m77 -9 c-2
-19 1 -23 20 -21 15 2 22 -3 22 -15 0 -11 -3 -13 -8 -5 -5 7 -13 9 -21 3 -8
-4 -20 -6 -27 -3 -13 5 -13 -14 1 -57 3 -10 1 -21 -4 -24 -5 -4 -12 2 -16 13
-4 15 -13 19 -36 16 -20 -3 -27 0 -23 7 4 7 3 8 -5 4 -9 -6 -9 -11 0 -22 8
-10 8 -14 0 -14 -6 0 -11 -5 -11 -11 0 -5 5 -7 12 -3 7 4 8 3 4 -5 -12 -19
-24 -3 -22 31 2 28 6 33 25 30 20 -2 22 0 11 13 -7 8 -16 13 -19 10 -4 -2 -8
2 -8 10 0 8 5 15 10 15 5 0 3 8 -4 18 -12 15 -12 16 2 5 9 -7 19 -10 23 -6 13
13 37 11 43 -3 5 -14 24 -20 22 -6 -3 16 1 42 7 42 3 0 4 -10 2 -22z m1809
-16 c34 -17 64 -36 68 -42 5 -9 -83 21 -108 37 -5 3 -40 5 -78 4 -60 -1 -68 1
-62 15 5 14 2 16 -15 12 -14 -4 -20 -2 -16 4 4 6 35 9 78 6 53 -4 86 -13 133
-36z m196 -18 c37 -18 49 -34 23 -34 -18 0 -136 61 -136 71 0 9 55 -9 113 -37z
m474 -21 c-4 -3 -2 -12 4 -19 7 -8 7 -14 -1 -19 -6 -4 -9 -1 -8 7 2 7 -3 12
-9 11 -7 -2 -13 1 -13 6 0 5 6 12 13 14 18 8 21 8 14 0z m-167 -33 c-7 -5 -20
-6 -28 -2 -11 4 -14 1 -9 -12 4 -11 3 -15 -4 -11 -6 4 -17 -1 -24 -11 -8 -11
-15 -15 -15 -11 0 5 -13 -1 -29 -12 -16 -12 -33 -21 -37 -21 -5 0 2 7 14 16
12 8 20 19 17 24 -6 10 94 62 106 54 5 -3 9 1 10 8 0 10 2 10 6 -1 3 -7 0 -17
-7 -21z m130 21 c0 -5 -6 -14 -14 -20 -12 -10 -13 -8 -9 8 5 21 23 30 23 12z
m-44 -27 c1 -9 0 -13 -4 -10 -3 4 -7 14 -8 22 -1 9 0 13 4 10 3 -4 7 -14 8
-22z m-274 -36 c-7 -7 -12 -8 -12 -2 0 14 12 26 19 19 2 -3 -1 -11 -7 -17z
m406 -243 c-2 -5 -15 -10 -30 -9 -15 0 -25 -3 -22 -8 3 -4 9 -6 14 -3 5 3 11
1 15 -4 3 -6 -3 -8 -15 -6 -11 2 -20 1 -20 -3 0 -4 -14 -8 -30 -9 -17 -1 -30
-1 -30 1 0 7 52 38 66 40 7 1 17 5 21 9 10 11 35 4 31 -8z m887 -444 c3 -5 2
-12 -3 -15 -5 -3 -9 1 -9 9 0 17 3 19 12 6z m-102 -44 c3 -8 -1 -14 -9 -14
-15 0 -18 9 -7 20 9 9 10 9 16 -6z m25 -169 c-3 -14 20 -14 60 -2 17 5 22 2
22 -11 0 -13 -3 -15 -13 -6 -8 6 -17 8 -21 4 -12 -12 -76 -31 -76 -22 0 5 8 9
18 9 14 0 15 2 2 9 -8 6 -28 7 -45 4 -40 -8 -25 7 17 17 18 4 34 8 36 9 1 1 1
-5 0 -11z m-2675 -25 c4 -3 1 -13 -6 -21 -8 -10 -8 -13 -1 -9 7 4 14 1 17 -6
4 -10 -2 -13 -19 -9 -31 6 -39 19 -24 37 14 16 23 19 33 8z m432 -29 c33 -8
70 -22 84 -32 13 -9 35 -25 50 -34 31 -21 21 -21 -76 -4 -69 12 -133 44 -165
83 -13 16 -13 16 107 -13z m2175 3 c0 -7 -8 -13 -18 -14 -10 -1 -19 4 -19 12
0 7 7 11 15 7 11 -4 13 -1 7 8 -5 9 -4 11 3 6 7 -4 12 -13 12 -19z m-547 -22
c-3 -9 -8 -14 -10 -11 -3 3 -2 9 2 15 9 16 15 13 8 -4z m-63 -15 c0 -5 -5 -10
-11 -10 -5 0 -7 5 -4 10 3 6 8 10 11 10 2 0 4 -4 4 -10z m-133 -56 c-3 -3 -12
-4 -19 -1 -8 3 -5 6 6 6 11 1 17 -2 13 -5z m103 -5 c0 -5 -4 -7 -10 -4 -5 3
-10 2 -10 -3 0 -5 -7 -9 -15 -9 -21 0 -19 15 3 20 29 8 32 7 32 -4z m-380 -55
c0 -8 -19 -13 -24 -6 -3 5 1 9 9 9 8 0 15 -2 15 -3z m-490 -62 c0 -8 -171 -4
-179 4 -2 2 37 4 87 4 51 0 92 -4 92 -8z"/>
<path d="M2883 3902 l-102 -67 215 0 c118 0 214 1 214 1 0 5 -209 134 -216
133 -5 0 -55 -31 -111 -67z"/>
<path d="M3387 3846 c-3 -9 -13 -13 -21 -10 -8 3 -17 1 -20 -5 -5 -7 4 -9 22
-7 34 4 37 -11 9 -42 -17 -19 -16 -20 40 -32 32 -6 69 -15 82 -18 22 -5 23 -3
10 12 -8 10 -25 27 -38 39 -13 12 -36 35 -51 51 -22 23 -28 25 -33 12z"/>
<path d="M2563 3818 c-18 -21 -36 -35 -72 -57 -20 -13 -4 -33 17 -22 9 5 38
12 64 16 38 6 46 11 45 27 -1 17 -3 17 -13 4 -9 -14 -13 -14 -30 -1 -17 13
-17 14 -2 15 21 0 33 19 21 31 -6 6 -17 0 -30 -13z m27 2 c0 -5 -5 -10 -11
-10 -5 0 -7 5 -4 10 3 6 8 10 11 10 2 0 4 -4 4 -10z"/>
<path d="M3340 3802 c0 -14 11 -21 26 -15 8 3 11 9 8 14 -7 11 -34 12 -34 1z"/>
<path d="M2718 3706 c-15 -8 -30 -11 -34 -8 -4 4 -4 -1 -1 -11 4 -10 3 -16 -2
-12 -5 3 -40 -18 -78 -46 -83 -63 -90 -69 -38 -39 129 77 242 162 153 116z"/>
<path d="M3263 3713 c-7 -3 -13 -9 -13 -15 0 -6 6 -5 15 2 13 11 15 10 11 -1
-4 -9 24 -32 79 -66 47 -29 85 -50 85 -48 0 2 -28 25 -62 52 -35 26 -65 51
-66 55 -6 13 -36 26 -49 21z"/>
<path d="M3830 3465 c0 -1 9 -12 20 -25 11 -13 20 -18 20 -11 0 7 5 9 10 6 6
-4 8 -10 5 -15 -7 -12 37 -23 62 -17 14 4 13 5 -5 6 -16 1 -21 5 -16 14 4 6 4
9 -1 5 -4 -4 -17 -2 -29 4 -11 7 -24 11 -28 10 -5 -1 -8 4 -8 11 0 8 -7 14
-15 14 -8 0 -15 -1 -15 -2z"/>
<path d="M2102 3445 c8 -9 -31 -42 -44 -37 -5 1 -8 -6 -8 -15 0 -14 5 -12 28
8 15 13 31 27 35 30 5 4 3 10 -5 14 -7 5 -10 5 -6 0z"/>
<path d="M1992 3389 c10 -5 15 -16 12 -24 -7 -18 7 -20 24 -3 8 8 5 14 -15 25
-29 15 -46 17 -21 2z"/>
<path d="M3957 3379 c7 -7 15 -10 18 -7 3 3 -2 9 -12 12 -14 6 -15 5 -6 -5z"/>
<path d="M4026 3185 c-5 -15 17 -39 27 -28 12 11 8 31 -7 36 -8 3 -17 0 -20
-8z"/>
<path d="M1905 3120 c-3 -5 -1 -10 4 -10 6 0 11 5 11 10 0 6 -2 10 -4 10 -3 0
-8 -4 -11 -10z"/>
<path d="M2960 3555 c-102 -35 -445 -223 -464 -253 -6 -10 173 79 287 142 79
45 169 76 216 76 69 0 185 -52 469 -211 17 -10 32 -16 32 -14 0 9 -89 65 -175
110 -50 26 -128 69 -175 95 -107 60 -144 71 -190 55z"/>
<path d="M2390 3293 c-14 -9 -28 -21 -32 -27 -4 -6 -12 -5 -21 3 -13 10 -15 9
-10 -8 4 -16 1 -21 -15 -21 -20 0 -50 -36 -39 -46 4 -5 147 104 147 112 0 7
-4 5 -30 -13z"/>
<path d="M2135 3099 c-4 -6 -17 -14 -29 -19 -17 -7 -17 -9 -3 -9 9 -1 17 -6
17 -12 0 -5 -4 -7 -10 -4 -5 3 -10 2 -10 -3 0 -12 26 -23 34 -15 3 3 1 14 -4
23 -10 20 10 46 25 32 5 -4 5 -1 1 6 -9 15 -13 15 -21 1z"/>
<path d="M4010 2926 c0 -2 8 -10 18 -17 15 -13 16 -12 3 4 -13 16 -21 21 -21
13z"/>
<path d="M1793 2771 c1 -15 4 -17 14 -9 17 14 16 28 -1 28 -8 0 -14 -9 -13
-19z"/>
<path d="M4484 3175 c11 -8 22 -12 25 -9 6 6 -19 24 -34 24 -5 -1 -1 -7 9 -15z"/>
<path d="M1765 3020 c-3 -5 1 -10 10 -10 9 0 13 5 10 10 -3 6 -8 10 -10 10 -2
0 -7 -4 -10 -10z"/>
<path d="M2330 2517 c0 -9 4 -18 9 -21 5 -4 8 1 7 9 -3 21 -16 31 -16 12z"/>
<path d="M902 1928 c-8 -11 -7 -20 6 -38 20 -30 40 -36 38 -12 0 9 -12 22 -26
29 l-25 12 27 -4 c21 -3 26 0 21 13 -5 12 -8 13 -11 3 -3 -10 -6 -10 -12 -2
-5 9 -10 8 -18 -1z"/>
<path d="M3215 1839 c-4 -6 -5 -12 -2 -15 2 -3 7 2 10 11 7 17 1 20 -8 4z"/>
<path d="M5080 3212 c0 -10 38 -13 44 -3 3 3 -6 8 -20 9 -13 1 -24 -2 -24 -6z"/>
<path d="M5494 2741 c-34 -23 -70 -57 -84 -81 -51 -84 -57 -89 -167 -135 -24
-10 -55 -33 -69 -52 -30 -40 -50 -49 -163 -74 -96 -21 -172 -54 -219 -93 -31
-27 -66 -76 -44 -62 6 4 35 -37 68 -95 34 -61 60 -96 64 -89 5 7 8 2 8 -12 0
-13 21 -58 46 -101 45 -73 59 -91 53 -66 -1 6 4 14 12 17 9 3 11 0 6 -8 -5 -8
-4 -11 3 -6 13 8 35 -28 24 -39 -4 -5 -2 -5 5 -1 7 4 9 14 6 23 -4 11 -3 14 5
9 7 -4 12 -15 13 -24 0 -10 3 -12 6 -5 3 10 10 10 24 2 11 -5 24 -7 31 -3 6 4
9 1 6 -7 -3 -8 -11 -13 -17 -11 -7 1 -9 -3 -6 -9 5 -8 12 -6 22 4 15 14 10 42
-6 33 -4 -3 -13 5 -20 16 -11 18 -11 20 2 15 17 -6 17 17 0 34 -8 8 -13 8 -17
0 -4 -6 0 -11 11 -11 15 0 15 -2 4 -9 -9 -6 -22 -6 -33 0 -10 5 -36 8 -58 5
-22 -3 -40 -1 -40 5 0 5 5 9 11 9 5 0 7 5 4 10 -3 6 -1 10 4 10 6 0 11 -4 11
-10 0 -5 4 -10 9 -10 5 0 8 11 6 25 -2 23 9 31 39 26 5 -1 17 6 27 15 11 9 19
13 19 8 1 -5 8 4 17 20 15 28 16 29 29 11 8 -10 14 -22 14 -27 0 -4 3 -7 8 -7
19 3 23 -2 12 -16 -7 -8 -8 -15 -2 -15 16 0 34 27 23 34 -6 4 -7 14 -4 24 6
14 4 15 -9 4 -10 -8 -19 -9 -22 -3 -6 10 10 25 29 26 6 1 18 -5 28 -13 10 -9
17 -11 17 -4 0 6 -4 13 -9 16 -8 5 -8 14 -2 45 1 2 8 -2 16 -9 8 -7 15 -9 15
-4 0 4 5 3 12 -4 21 -21 32 -13 12 10 -10 12 -14 18 -8 15 7 -4 23 2 35 14 18
16 20 19 6 15 -12 -4 -16 -2 -11 5 4 8 -1 9 -17 5 -20 -6 -21 -5 -7 4 13 8 24
8 37 0 22 -11 37 2 25 23 -6 10 -4 10 7 0 10 -10 10 -16 1 -25 -16 -16 -15
-31 1 -21 19 12 37 12 37 1 0 -6 -8 -7 -17 -4 -16 5 -16 5 -2 -6 9 -7 14 -19
11 -26 -3 -10 -7 -9 -16 4 -10 13 -17 15 -32 6 -11 -7 -13 -12 -6 -12 7 0 11
-4 7 -9 -3 -5 -1 -12 4 -15 5 -4 12 -2 16 3 3 6 12 8 20 4 9 -3 15 1 15 8 0 7
7 20 16 30 16 18 11 44 -7 34 -5 -4 -9 -2 -9 3 0 17 13 22 29 10 9 -7 13 -9 9
-4 -3 4 0 23 8 41 9 22 10 36 4 40 -10 6 -14 -6 -11 -35 2 -13 1 -13 -9 0 -9
12 -10 10 -5 -10 4 -18 3 -21 -3 -10 -5 8 -9 26 -7 40 1 20 7 25 27 23 22 -2
27 5 50 80 33 102 54 197 68 307 5 47 13 102 16 123 3 21 2 37 -4 37 -5 0 -36
-18 -68 -39z m-54 -476 c-7 -8 -20 -15 -29 -15 -11 0 -8 5 9 14 33 19 35 19
20 1z m-100 -80 c0 -2 -6 -7 -12 -11 -7 -4 -10 -4 -6 1 4 4 0 14 -10 22 -15
13 -15 13 6 3 12 -6 22 -13 22 -15z m60 -19 c0 -2 -6 -9 -13 -15 -10 -8 -14
-7 -14 4 0 8 6 15 14 15 7 0 13 -2 13 -4z m1 -59 c-10 -9 -11 -8 -5 6 3 10 9
15 12 12 3 -3 0 -11 -7 -18z m-485 -45 c-17 -16 -18 -16 -5 5 7 12 15 20 18
17 3 -2 -3 -12 -13 -22z m435 5 c-10 -9 -11 -8 -5 6 3 10 9 15 12 12 3 -3 0
-11 -7 -18z m-270 -187 c13 -10 18 -19 12 -20 -7 0 -13 5 -13 11 0 5 -4 7 -10
4 -5 -3 -10 -1 -10 5 0 7 -7 10 -15 6 -8 -3 -15 -1 -15 4 0 16 26 11 51 -10z"/>
<path d="M4573 2395 c0 -8 4 -12 9 -9 5 3 6 10 3 15 -9 13 -12 11 -12 -6z"/>
<path d="M4476 2353 c-16 -8 -35 -16 -42 -17 -23 -3 -133 -68 -138 -81 -2 -7
24 2 59 18 35 17 61 35 58 40 -3 6 -1 7 4 4 14 -9 75 17 93 37 16 20 3 20 -34
-1z"/>
<path d="M4404 2242 c-5 -19 -9 -21 -23 -10 -14 12 -15 11 -1 -6 14 -18 13
-18 -8 -12 -13 5 -22 3 -22 -3 0 -18 36 -12 54 8 10 11 16 26 13 33 -4 8 -8 5
-13 -10z"/>
<path d="M4204 2220 c-5 -8 -18 -16 -29 -17 -43 -4 -58 -10 -66 -26 -9 -15 -7
-15 28 -1 20 9 46 18 56 20 25 4 30 10 25 26 -4 10 -7 9 -14 -2z"/>
<path d="M4493 2213 c-3 -10 -8 -21 -10 -25 -2 -4 2 -10 9 -14 7 -4 10 -4 6 1
-4 4 0 14 10 22 9 8 11 11 3 7 -11 -5 -13 -3 -8 9 3 10 4 17 1 17 -2 0 -7 -8
-11 -17z"/>
<path d="M4320 2207 c-16 -13 -24 -37 -12 -37 4 0 12 11 19 25 6 14 10 25 10
25 -1 0 -9 -6 -17 -13z"/>
<path d="M4272 2191 c-8 -4 -15 -17 -16 -27 -2 -10 -11 -18 -20 -18 -8 1 -14
-1 -11 -5 2 -4 -5 -20 -16 -37 -17 -24 -19 -25 -14 -6 4 12 2 22 -4 22 -5 0
-12 8 -14 18 -4 13 -5 11 -6 -5 0 -13 4 -23 10 -23 6 0 2 -14 -9 -31 -18 -29
-35 -36 -38 -14 -3 26 -5 29 -12 17 -5 -7 -8 -29 -7 -49 2 -32 1 -34 -10 -19
-18 24 -17 24 -44 -1 -16 -14 -28 -19 -35 -14 -11 9 -16 11 -38 11 -9 0 -8 3
2 9 8 6 17 8 21 5 4 -2 9 2 12 10 4 9 17 12 41 10 20 -3 38 1 42 7 5 9 -3 10
-30 6 -27 -4 -36 -3 -33 6 2 7 15 12 28 12 13 0 24 4 24 8 0 5 8 13 18 18 9 6
17 15 17 21 0 6 -8 4 -18 -5 -10 -10 -24 -17 -30 -17 -7 0 -12 -4 -12 -10 0
-5 -4 -9 -8 -7 -5 1 -36 -18 -70 -43 -46 -33 -61 -49 -56 -62 4 -14 0 -18 -17
-18 -18 0 -19 2 -9 15 23 27 4 26 -26 -2 -16 -15 -30 -25 -31 -22 -2 6 -83
-43 -109 -68 -13 -12 -24 -19 -24 -16 0 3 -7 0 -15 -7 -8 -7 -12 -16 -9 -21 3
-5 -1 -6 -8 -4 -8 3 -22 -2 -33 -11 -11 -8 -14 -12 -6 -8 9 5 12 3 7 -5 -4 -6
-11 -9 -16 -6 -4 2 -18 -3 -31 -13 -34 -26 -140 -82 -156 -82 -7 0 -13 -4 -13
-9 0 -18 64 -8 83 13 10 12 16 15 12 9 -3 -7 -1 -13 6 -13 16 0 -21 -29 -37
-30 -21 0 -104 -52 -98 -61 6 -10 54 12 102 48 17 13 36 22 40 19 15 -9 142
70 215 134 107 94 116 100 133 100 8 0 13 4 10 9 -3 4 2 8 12 8 59 -3 225 54
207 71 -2 2 21 24 52 48 31 24 53 44 48 44 -5 0 6 16 25 35 19 19 30 35 24 35
-5 0 -2 4 6 10 8 5 12 11 9 14 -2 3 -10 1 -17 -3z m-267 -201 c8 7 15 9 15 6
0 -11 -23 -31 -42 -39 -19 -7 -34 8 -18 18 6 4 7 12 3 18 -4 7 0 6 10 -2 14
-11 20 -11 32 -1z"/>
<path d="M917 2167 c-3 -8 1 -14 8 -14 7 0 11 6 8 14 -3 7 -6 13 -8 13 -2 0
-5 -6 -8 -13z"/>
<path d="M4064 2168 c-4 -6 -3 -8 4 -4 5 3 13 0 15 -6 3 -8 6 -6 6 5 1 19 -14
23 -25 5z"/>
<path d="M4420 2158 c0 -10 7 -18 16 -18 9 0 12 -5 8 -12 -4 -7 -3 -9 1 -5 13
11 15 36 4 43 -5 3 -9 -1 -9 -8 0 -9 -3 -9 -10 2 -8 13 -10 12 -10 -2z"/>
<path d="M4029 2147 c7 -7 7 -16 -2 -26 -11 -14 -10 -14 6 -2 21 17 22 38 2
38 -11 0 -12 -4 -6 -10z"/>
<path d="M4384 2129 c-18 -21 -62 -44 -76 -41 -4 1 -5 -5 -2 -13 4 -10 2 -13
-8 -10 -13 5 -128 -85 -136 -106 -2 -5 -8 -7 -12 -4 -5 3 -7 -3 -5 -14 3 -15
-1 -18 -17 -13 -14 3 -19 1 -14 -6 6 -10 -67 -50 -102 -56 -7 -1 -18 -8 -25
-15 -21 -21 243 77 277 103 17 13 63 54 101 90 62 58 68 67 52 76 -9 6 -15 15
-12 21 11 16 -1 10 -21 -12z m-39 -58 c3 -5 2 -12 -3 -15 -5 -3 -9 1 -9 9 0
17 3 19 12 6z m-45 -31 c0 -5 -5 -10 -11 -10 -5 0 -7 5 -4 10 3 6 8 10 11 10
2 0 4 -4 4 -10z"/>
<path d="M5308 2096 c-10 -7 -15 -16 -11 -19 11 -11 11 -67 0 -74 -6 -4 -8 0
-4 10 3 9 -2 26 -13 39 -11 13 -19 19 -20 14 0 -5 -6 -3 -14 3 -11 10 -14 9
-12 -1 1 -7 5 -18 8 -24 12 -18 -3 -51 -33 -73 -32 -24 -30 -45 4 -36 21 6 21
5 4 -9 -10 -8 -14 -17 -9 -20 6 -3 13 1 16 10 3 9 11 12 18 8 10 -6 10 -5 1 7
-10 12 -9 20 5 40 9 13 24 24 32 24 8 -1 21 3 28 8 8 6 12 5 12 -2 0 -7 5 -9
12 -5 8 5 9 2 4 -12 -4 -10 -3 -15 1 -10 4 4 8 21 8 37 0 26 -1 27 -12 12 -10
-13 -13 -14 -14 -2 -5 56 -3 71 11 79 8 5 11 9 5 9 -5 0 -18 -6 -27 -13z m-28
-57 c5 -8 5 -21 0 -29 -8 -13 -10 -13 -10 0 0 13 -2 13 -11 0 -9 -12 -10 -12
-5 4 4 10 2 24 -4 31 -8 10 -7 13 6 11 9 -1 20 -9 24 -17z m-50 -74 c-13 -14
-27 -25 -32 -25 -9 0 42 49 51 50 3 0 -6 -11 -19 -25z"/>
<path d="M3877 2088 c-9 -5 -17 -14 -17 -19 0 -6 7 -4 15 5 9 8 22 13 30 10 8
-4 15 -4 15 -1 0 11 -27 14 -43 5z"/>
<path d="M5205 2017 c1 -12 6 -21 11 -20 15 3 15 19 1 31 -11 9 -13 7 -12 -11z"/>
<path d="M5122 2004 c-7 -14 -16 -23 -21 -20 -5 3 -14 -1 -21 -10 -7 -8 -19
-13 -26 -10 -8 3 -18 -4 -24 -14 -6 -11 -9 -20 -8 -21 27 -7 45 -5 65 8 19 13
23 13 21 2 -2 -8 5 -14 14 -14 9 0 20 -4 24 -8 4 -4 2 -7 -4 -7 -7 0 -12 -5
-12 -12 0 -9 3 -9 12 0 17 17 33 15 19 -2 -13 -15 1 -32 18 -22 5 4 11 0 14
-6 3 -7 4 -3 4 9 -1 15 -5 19 -11 13 -18 -18 -29 -10 -12 9 14 16 15 20 2 30
-15 13 -16 28 -2 50 6 9 5 12 -2 8 -13 -9 -42 2 -42 15 0 5 4 6 10 3 6 -3 7 1
4 9 -8 21 -9 20 -22 -10z m-2 -29 c-7 -8 -17 -15 -23 -15 -5 0 -16 -8 -24 -17
-13 -17 -14 -17 -5 0 5 10 20 24 33 32 32 17 34 17 19 0z m30 1 c0 -2 -8 -10
-17 -17 -16 -13 -17 -12 -4 4 13 16 21 21 21 13z m-109 -39 c-10 -9 -11 -8 -5
6 3 10 9 15 12 12 3 -3 0 -11 -7 -18z m116 16 c-4 -3 1 -15 10 -26 17 -19 17
-20 -4 -8 -13 6 -23 15 -23 20 0 9 11 21 18 21 3 0 2 -3 -1 -7z"/>
<path d="M687 2013 c-13 -13 -7 -43 9 -43 13 0 14 3 5 14 -10 11 -8 17 6 25
15 9 15 10 2 11 -9 0 -19 -3 -22 -7z"/>
<path d="M1677 1968 c19 -21 31 -25 14 -5 -6 8 -9 16 -6 19 3 2 -2 5 -10 5
-13 0 -13 -3 2 -19z"/>
<path d="M5305 1970 c-4 -6 -10 -8 -15 -5 -4 3 -10 -2 -14 -10 -5 -15 11 -31
21 -21 4 3 1 6 -6 6 -7 0 -3 9 10 20 13 10 21 19 17 20 -4 0 -10 -5 -13 -10z"/>
<path d="M786 1945 c-6 -17 9 -29 24 -20 14 9 12 22 -4 28 -8 3 -17 -1 -20 -8z"/>
<path d="M1706 1941 c-4 -5 11 -23 32 -39 33 -27 38 -28 39 -12 1 13 -3 17
-14 13 -12 -5 -14 -3 -8 7 5 9 4 11 -3 6 -7 -4 -12 -2 -12 3 0 6 -6 10 -12 9
-7 -2 -12 3 -10 10 2 14 -4 16 -12 3z"/>
<path d="M1787 1897 c-3 -8 -2 -19 2 -25 7 -12 61 -36 74 -34 4 1 7 -2 7 -8 0
-13 34 -8 53 8 10 9 17 10 22 2 6 -9 -1 -14 -17 -11 -5 0 -8 -4 -8 -9 0 -7 16
-9 40 -6 28 3 38 2 34 -6 -4 -7 -2 -8 5 -4 9 6 9 11 0 22 -9 10 -14 12 -19 4
-4 -7 -13 -2 -24 14 -16 25 -18 25 -41 10 -14 -9 -25 -12 -25 -6 0 6 6 12 13
15 6 2 -9 8 -36 12 -26 4 -50 12 -54 18 -4 6 -1 7 7 2 9 -5 11 -4 6 3 -10 16
-33 15 -39 -1z"/>
<path d="M5214 1876 c1 -8 5 -18 8 -22 4 -3 5 1 4 10 -1 8 -5 18 -8 22 -4 3
-5 -1 -4 -10z"/>
<path d="M5004 1844 c9 -8 13 -20 10 -26 -4 -7 -2 -8 4 -4 14 8 -2 46 -19 46
-6 0 -3 -7 5 -16z"/>
<path d="M5173 1849 c10 -6 14 -15 10 -22 -4 -7 0 -6 10 2 18 14 23 26 8 16
-5 -3 -12 -1 -16 5 -3 5 -12 10 -18 10 -7 0 -4 -5 6 -11z"/>
<path d="M786 1842 c-3 -6 1 -15 8 -21 8 -7 17 -8 20 -3 3 6 -1 15 -8 21 -8 7
-17 8 -20 3z"/>
<path d="M1717 1819 c7 -7 15 -10 18 -7 3 3 -2 9 -12 12 -14 6 -15 5 -6 -5z"/>
<path d="M926 1787 c3 -10 9 -15 12 -12 3 3 0 11 -7 18 -10 9 -11 8 -5 -6z"/>
<path d="M4060 1756 c-149 -67 -223 -105 -255 -131 l-30 -25 90 5 c49 3 98 8
109 11 18 6 201 185 187 183 -3 0 -49 -20 -101 -43z"/>
<path d="M757 1779 c7 -7 15 -10 18 -7 3 3 -2 9 -12 12 -14 6 -15 5 -6 -5z"/>
<path d="M1800 1782 c0 -7 10 -17 23 -22 66 -28 365 -140 372 -140 13 0 -55
49 -100 72 -47 25 -205 79 -205 71 0 -3 -6 -1 -12 5 -7 5 -24 9 -38 8 -14 -1
-28 3 -32 9 -5 6 -8 5 -8 -3z"/>
<path d="M886 1758 c3 -5 10 -6 15 -3 13 9 11 12 -6 12 -8 0 -12 -4 -9 -9z"/>
<path d="M3466 1760 c-15 -5 -16 -9 -7 -14 7 -5 18 -3 24 3 14 14 6 20 -17 11z"/>
<path d="M5105 1721 c-3 -5 -2 -12 3 -15 5 -3 9 1 9 9 0 17 -3 19 -12 6z"/>
<path d="M5135 1719 c-3 -4 2 -6 10 -5 21 3 28 13 10 13 -9 0 -18 -4 -20 -8z"/>
<path d="M3411 1676 c-16 -19 3 -30 29 -16 11 6 20 14 20 17 0 3 -3 3 -7 0 -3
-4 -12 -2 -18 3 -9 7 -16 6 -24 -4z"/>
<path d="M3534 1614 c-18 -15 -18 -15 2 -5 12 6 25 7 29 3 5 -4 5 -1 1 6 -9
15 -8 15 -32 -4z"/>
<path d="M3604 1612 c3 -6 -2 -15 -11 -21 -10 -5 -15 -12 -12 -15 3 -4 14 2
23 13 13 14 14 21 5 27 -7 4 -10 3 -5 -4z"/>
<path d="M2990 1250 c0 -18 4 -29 10 -25 6 3 10 15 10 25 0 10 -4 22 -10 25
-6 4 -10 -7 -10 -25z"/>
<path d="M2991 1154 c0 -11 3 -14 6 -6 3 7 2 16 -1 19 -3 4 -6 -2 -5 -13z"/>
<path d="M4670 1069 c0 -5 5 -7 10 -4 6 3 10 8 10 11 0 2 -4 4 -10 4 -5 0 -10
-5 -10 -11z"/>
<path d="M4645 1060 c-4 -6 -11 -7 -17 -4 -7 5 -8 2 -3 -6 6 -9 4 -12 -7 -8
-8 4 -21 2 -29 -3 -10 -6 -7 -9 13 -9 15 0 30 5 33 10 4 6 10 8 14 6 4 -3 8 1
8 9 0 18 -3 19 -12 5z"/>
<path d="M4557 1041 c-3 -11 1 -22 8 -24 8 -4 10 3 7 19 -5 29 -8 30 -15 5z"/>
<path d="M4410 1013 c0 -5 -10 -15 -22 -21 -13 -6 -17 -11 -10 -11 6 -1 12 -8
12 -16 0 -8 4 -15 10 -15 5 0 7 7 4 15 -4 8 -1 22 6 30 7 9 10 18 6 22 -3 3
-6 2 -6 -4z"/>
<path d="M4440 1010 c0 -5 7 -7 15 -4 8 4 15 8 15 10 0 2 -7 4 -15 4 -8 0 -15
-4 -15 -10z"/>
<path d="M4475 1000 c-3 -6 1 -7 9 -4 18 7 21 14 7 14 -6 0 -13 -4 -16 -10z"/>
<path d="M2050 992 c0 -4 26 -18 58 -32 46 -20 72 -24 137 -23 44 0 153 1 243
2 90 1 161 5 158 9 -3 5 -70 12 -148 15 -79 3 -174 10 -213 16 -93 13 -235 21
-235 13z"/>
<path d="M2991 984 c0 -11 3 -14 6 -6 3 7 2 16 -1 19 -3 4 -6 -2 -5 -13z"/>
<path d="M1434 979 c-8 -14 14 -19 25 -6 8 10 7 14 -5 14 -8 0 -17 -4 -20 -8z"/>
<path d="M1555 979 l-30 -8 32 3 c18 1 35 -2 37 -8 3 -7 5 -7 5 1 1 17 -10 20
-44 12z"/>
<path d="M4415 980 c-2 -3 0 -12 6 -20 7 -12 9 -12 9 -1 0 9 8 12 25 9 14 -3
25 -1 25 3 0 5 -3 9 -7 10 -5 0 -18 2 -31 3 -13 2 -25 0 -27 -4z"/>
<path d="M1999 978 c-5 -18 -6 -38 -1 -34 7 8 12 36 6 36 -2 0 -4 -1 -5 -2z"/>
<path d="M4337 973 c-3 -5 6 -9 20 -10 19 -1 22 1 12 8 -17 11 -26 11 -32 2z"/>
<path d="M3639 965 c-3 -2 -43 -5 -89 -6 -47 -1 -94 -5 -105 -10 -12 -5 59 -7
167 -6 134 1 191 6 200 15 10 9 -6 12 -78 12 -50 0 -93 -2 -95 -5z"/>
<path d="M1470 952 c0 -7 16 -20 35 -29 19 -9 32 -19 30 -23 -2 -4 3 -7 11 -7
10 0 11 4 4 11 -16 16 -12 25 9 19 10 -3 22 0 25 6 5 7 1 8 -9 5 -8 -4 -23 0
-32 7 -12 10 -15 10 -9 2 9 -17 -16 -17 -32 -1 -7 7 -12 8 -12 3 0 -6 -5 -3
-10 5 -7 10 -10 11 -10 2z"/>
<path d="M2990 930 c0 -5 5 -10 10 -10 6 0 10 5 10 10 0 6 -4 10 -10 10 -5 0
-10 -4 -10 -10z"/>
<path d="M1696 907 c3 -10 9 -15 12 -12 3 3 0 11 -7 18 -10 9 -11 8 -5 -6z"/>
<path d="M2270 900 c0 -5 6 -10 13 -10 7 0 46 -11 87 -25 104 -35 253 -55 400
-54 122 2 123 2 50 10 -126 13 -314 41 -335 50 -13 5 11 9 65 10 47 1 96 3
110 4 14 2 102 4 195 5 105 1 162 5 150 10 -29 12 -735 12 -735 0z"/>
<path d="M2908 813 c7 -3 16 -2 19 1 4 3 -2 6 -13 5 -11 0 -14 -3 -6 -6z"/>
<path d="M1880 780 c0 -5 5 -10 11 -10 5 0 7 5 4 10 -3 6 -8 10 -11 10 -2 0
-4 -4 -4 -10z"/>
<path d="M1916 761 c-19 -7 -19 -8 0 -13 13 -3 21 0 21 8 0 8 -1 14 -1 13 -1
0 -10 -4 -20 -8z"/>
<path d="M3140 741 c-25 -7 -25 -8 6 -12 21 -4 31 -1 31 8 0 14 -1 14 -37 4z"/>
</g>
</svg>
